<?xml version="1.0" encoding="UTF-8" standalone="no"?>
<!-- Created with Inkscape (http://www.inkscape.org/) -->

<svg
   version="1.1"
   id="svg1"
   width="913"
   height="1080"
   viewBox="0 0 913 1080"
   sodipodi:docname="logo.svg"
   inkscape:version="1.3.2 (1:1.3.2+202311252150+091e20ef0f)"
   xmlns:inkscape="http://www.inkscape.org/namespaces/inkscape"
   xmlns:sodipodi="http://sodipodi.sourceforge.net/DTD/sodipodi-0.dtd"
   xmlns="http://www.w3.org/2000/svg"
   xmlns:svg="http://www.w3.org/2000/svg">
  <defs
     id="defs1" />
  <sodipodi:namedview
     id="namedview1"
     pagecolor="#ffffff"
     bordercolor="#000000"
     borderopacity="0.25"
     inkscape:showpageshadow="2"
     inkscape:pageopacity="0.0"
     inkscape:pagecheckerboard="0"
     inkscape:deskcolor="#d1d1d1"
     inkscape:zoom="0.7712963"
     inkscape:cx="-374.69388"
     inkscape:cy="540"
     inkscape:window-width="1920"
     inkscape:window-height="1012"
     inkscape:window-x="0"
     inkscape:window-y="0"
     inkscape:window-maximized="1"
     inkscape:current-layer="g1" />
  <g
     inkscape:groupmode="layer"
     inkscape:label="Image"
     id="g1">
    <path
       style="fill:#ff0000;fill-opacity:1"
       d="m -336.24336,1055.2142 c -16.2687,-53.1166 -23.27828,-83.59068 -31.10886,-135.24546 -8.37251,-55.22971 -11.41642,-96.0428 -11.41097,-153 0.006,-61.38352 4.06113,-110.80531 13.7849,-167.99758 12.02273,-70.71401 29.65679,-130.97756 58.81648,-201.00242 11.00434,-26.4261 13.20828,-32.32093 12.38999,-33.13921 -0.76885,-0.76886 -18.69035,10.36951 -69.7172,43.32984 -97.03355,62.67793 -140.84093,88.74774 -185.47692,110.37748 -32.39573,15.69835 -56.69762,24.78851 -86.85464,32.48812 -15.97145,4.07779 -20.01902,6.08368 -17.76244,8.80269 0.72492,0.87349 2.96033,1.83904 4.96756,2.14567 12.37445,1.89037 33.45499,12.775 46.97016,24.25236 7.09199,6.02266 14.43478,16.68926 18.18742,26.42018 6.84861,17.75903 7.47617,38.87421 2.10493,70.82287 -5.38865,32.05216 -7.11936,65.2365 -5.21547,100 1.29653,23.67341 2.87942,35.33314 7.15774,52.72462 11.06617,44.98429 27.61308,81.45735 58.42214,128.77538 5.01352,7.7 9.45446,14.55572 9.86876,15.23494 0.54854,0.89931 -0.008,1.11194 -2.04645,0.78237 -1.53984,-0.24891 -9.77471,-1.16989 -18.29971,-2.04661 -59.89656,-6.15985 -123.83622,-29.37453 -183,-66.44213 -68.75679,-43.07786 -129.27065,-109.55266 -165.25051,-181.52857 -28.17205,-56.35668 -43.39645,-116.41313 -47.78525,-188.5 -5.8077,-95.39193 29.1508,-207.41346 90.03211,-288.5 38.01901,-50.63674 80.23651,-87.52597 146.4405,-127.95822 39.08529,-23.87026 63.5137,-43.15882 82.61278,-65.230646 11.9565,-13.817523 19.37994,-25.145968 28.6273,-43.686341 4.28623,-8.5936332 8.0886,-15.6247872 8.4497,-15.6247872 2.38489,0 4.31017,21.9255222 4.25879,48.5000002 -0.0545,28.171814 -1.6,45.495007 -6.86972,77.000004 -7.12647,42.60559 -15.17306,73.25554 -31.20211,118.85069 -12.83388,36.50636 -13.7508,40.60878 -13.77913,61.6493 -0.0198,14.73009 0.31985,18.84538 2.14604,26 10.62275,41.61753 35.21006,71.12628 73.50016,88.21209 16.52765,7.37496 20.73963,8.00296 50.81934,7.57705 24.69757,-0.34971 25.74465,-0.44651 33.27449,-3.07626 10.46833,-3.65599 21.48842,-9.30132 32.2788,-16.53565 35.09148,-23.52682 53.50117,-59.29584 53.4269,-103.80557 -0.0762,-45.6462 -14.28778,-69.01304 -69.52629,-114.31562 -61.38666,-50.34483 -81.52259,-75.0579 -86.41327,-106.056034 -1.98003,-12.549866 -2.99055,-11.466687 12.20937,-13.087293 24.22818,-2.583194 70.71276,-1.428185 108.25,2.689703 62.89591,6.89977 135.54698,34.643584 195.57139,74.684304 26.48237,17.66569 63.2093,51.55052 92.90253,85.71328 33.277898,38.28702 63.749878,92.65732 81.533488,145.4779 31.7909298,94.42489 30.6695198,208.16534 -2.96637,300.86764 -17.84573,49.18376 -45.29446,96.57813 -80.012988,138.15446 -29.26152,35.04142 -46.95129,50.75444 -102.57792,91.11526 -33.43941,24.26252 -47.90953,38.60827 -65.44724,64.88474 -18.107,27.12936 -29.8566,55.87486 -36.10351,88.32746 -1.44754,7.5199 -2.72756,13.7831 -2.84449,13.9181 -0.11694,0.1351 -3.41648,-10.2149 -7.33231,-23.0001 z"
       id="path1"
       inkscape:export-filename="new-logo.png"
       inkscape:export-xdpi="96"
       inkscape:export-ydpi="96" />
  </g>
</svg>
